<mxfile host="app.diagrams.net" modified="2023-05-15T14:21:13.121Z" agent="Mozilla/5.0 (Windows NT 10.0; Win64; x64) AppleWebKit/537.36 (KHTML, like Gecko) Chrome/113.0.0.0 Safari/537.36" etag="53fx3XnSEYT8_ijCvTVr" version="21.2.9" type="device">
  <diagram name="Seite-1" id="em0Gl6nPePQxqQVdrPyh">
    <mxGraphModel dx="1147" dy="765" grid="1" gridSize="10" guides="1" tooltips="1" connect="1" arrows="1" fold="1" page="1" pageScale="1" pageWidth="827" pageHeight="1169" math="0" shadow="0">
      <root>
        <mxCell id="0" />
        <mxCell id="1" parent="0" />
        <mxCell id="XGBpJpwAAXsIiA7hD_jM-1" value="" style="rounded=0;whiteSpace=wrap;html=1;" vertex="1" parent="1">
          <mxGeometry x="160" y="160" width="540" height="110" as="geometry" />
        </mxCell>
        <mxCell id="XGBpJpwAAXsIiA7hD_jM-2" value="" style="image;html=1;image=img/lib/clip_art/computers/Laptop_128x128.png" vertex="1" parent="1">
          <mxGeometry x="200" y="180" width="80" height="80" as="geometry" />
        </mxCell>
        <mxCell id="XGBpJpwAAXsIiA7hD_jM-3" value="" style="image;points=[];aspect=fixed;html=1;align=center;shadow=0;dashed=0;image=img/lib/allied_telesis/computer_and_terminals/Smartphone.svg;" vertex="1" parent="1">
          <mxGeometry x="310" y="193.4" width="19.8" height="43.199999999999996" as="geometry" />
        </mxCell>
        <mxCell id="XGBpJpwAAXsIiA7hD_jM-4" value="Nutzer:innen verbinden sich über Frontend zur Cloud. Bspw.: Laptops (Browser), Smartphones etc." style="text;html=1;strokeColor=none;fillColor=none;align=center;verticalAlign=middle;whiteSpace=wrap;rounded=0;" vertex="1" parent="1">
          <mxGeometry x="380" y="200" width="300" height="30" as="geometry" />
        </mxCell>
        <mxCell id="XGBpJpwAAXsIiA7hD_jM-6" value="" style="rounded=1;whiteSpace=wrap;html=1;dashed=1;" vertex="1" parent="1">
          <mxGeometry x="160" y="310" width="540" height="160" as="geometry" />
        </mxCell>
        <mxCell id="XGBpJpwAAXsIiA7hD_jM-7" value="Netzwerkverbindung wird über unterschiedliche Bereitstellungsarten hergestellt" style="text;html=1;strokeColor=none;fillColor=none;align=center;verticalAlign=middle;whiteSpace=wrap;rounded=0;" vertex="1" parent="1">
          <mxGeometry x="250" y="330" width="420" height="30" as="geometry" />
        </mxCell>
        <mxCell id="XGBpJpwAAXsIiA7hD_jM-8" value="Internet &amp;amp;&amp;nbsp; &lt;br&gt;Public APIs" style="rounded=0;whiteSpace=wrap;html=1;" vertex="1" parent="1">
          <mxGeometry x="180" y="380" width="120" height="60" as="geometry" />
        </mxCell>
        <mxCell id="XGBpJpwAAXsIiA7hD_jM-9" value="Private LAN &amp;amp; APIs" style="rounded=0;whiteSpace=wrap;html=1;" vertex="1" parent="1">
          <mxGeometry x="560" y="380" width="120" height="60" as="geometry" />
        </mxCell>
        <mxCell id="XGBpJpwAAXsIiA7hD_jM-10" value="Private LAN, Internet &amp;amp; APIs" style="rounded=0;whiteSpace=wrap;html=1;" vertex="1" parent="1">
          <mxGeometry x="370" y="380" width="120" height="60" as="geometry" />
        </mxCell>
        <mxCell id="XGBpJpwAAXsIiA7hD_jM-11" value="" style="rounded=1;whiteSpace=wrap;html=1;dashed=1;" vertex="1" parent="1">
          <mxGeometry x="160" y="540" width="540" height="480" as="geometry" />
        </mxCell>
        <mxCell id="XGBpJpwAAXsIiA7hD_jM-17" value="" style="endArrow=classic;html=1;rounded=0;exitX=0.5;exitY=1;exitDx=0;exitDy=0;entryX=0.5;entryY=0;entryDx=0;entryDy=0;strokeWidth=2;" edge="1" parent="1" source="XGBpJpwAAXsIiA7hD_jM-1" target="XGBpJpwAAXsIiA7hD_jM-6">
          <mxGeometry width="50" height="50" relative="1" as="geometry">
            <mxPoint x="270" y="510" as="sourcePoint" />
            <mxPoint x="320" y="460" as="targetPoint" />
          </mxGeometry>
        </mxCell>
        <mxCell id="XGBpJpwAAXsIiA7hD_jM-18" value="" style="endArrow=classic;html=1;rounded=0;exitX=0.5;exitY=1;exitDx=0;exitDy=0;entryX=0.25;entryY=0;entryDx=0;entryDy=0;strokeWidth=2;" edge="1" parent="1" source="XGBpJpwAAXsIiA7hD_jM-8" target="XGBpJpwAAXsIiA7hD_jM-11">
          <mxGeometry width="50" height="50" relative="1" as="geometry">
            <mxPoint x="440" y="280" as="sourcePoint" />
            <mxPoint x="440" y="320" as="targetPoint" />
          </mxGeometry>
        </mxCell>
        <mxCell id="XGBpJpwAAXsIiA7hD_jM-19" value="" style="endArrow=classic;html=1;rounded=0;exitX=0.5;exitY=1;exitDx=0;exitDy=0;entryX=0.5;entryY=0;entryDx=0;entryDy=0;strokeWidth=2;" edge="1" parent="1" source="XGBpJpwAAXsIiA7hD_jM-10" target="XGBpJpwAAXsIiA7hD_jM-11">
          <mxGeometry width="50" height="50" relative="1" as="geometry">
            <mxPoint x="260" y="450" as="sourcePoint" />
            <mxPoint x="305" y="550" as="targetPoint" />
          </mxGeometry>
        </mxCell>
        <mxCell id="XGBpJpwAAXsIiA7hD_jM-14" value="Public Cloud" style="ellipse;whiteSpace=wrap;html=1;fillColor=#dae8fc;strokeColor=none;opacity=50;" vertex="1" parent="1">
          <mxGeometry x="200" y="450" width="229.9" height="70" as="geometry" />
        </mxCell>
        <mxCell id="XGBpJpwAAXsIiA7hD_jM-22" value="" style="endArrow=classic;html=1;rounded=0;exitX=0.5;exitY=1;exitDx=0;exitDy=0;entryX=0.75;entryY=0;entryDx=0;entryDy=0;strokeWidth=2;" edge="1" parent="1" source="XGBpJpwAAXsIiA7hD_jM-9" target="XGBpJpwAAXsIiA7hD_jM-11">
          <mxGeometry width="50" height="50" relative="1" as="geometry">
            <mxPoint x="260" y="450" as="sourcePoint" />
            <mxPoint x="305" y="550" as="targetPoint" />
          </mxGeometry>
        </mxCell>
        <mxCell id="XGBpJpwAAXsIiA7hD_jM-21" value="Private Cloud" style="ellipse;whiteSpace=wrap;html=1;fillColor=#e1d5e7;strokeColor=none;opacity=50;" vertex="1" parent="1">
          <mxGeometry x="430" y="450" width="220" height="70" as="geometry" />
        </mxCell>
        <mxCell id="XGBpJpwAAXsIiA7hD_jM-16" value="Hybrid Cloud" style="ellipse;whiteSpace=wrap;html=1;strokeColor=none;fillColor=#fff2cc;opacity=70;" vertex="1" parent="1">
          <mxGeometry x="370" y="450" width="120" height="70" as="geometry" />
        </mxCell>
        <mxCell id="XGBpJpwAAXsIiA7hD_jM-23" value="" style="rounded=0;whiteSpace=wrap;html=1;" vertex="1" parent="1">
          <mxGeometry x="180" y="585" width="80" height="395" as="geometry" />
        </mxCell>
        <mxCell id="XGBpJpwAAXsIiA7hD_jM-24" value="" style="rounded=0;whiteSpace=wrap;html=1;" vertex="1" parent="1">
          <mxGeometry x="600" y="585" width="80" height="395" as="geometry" />
        </mxCell>
        <mxCell id="XGBpJpwAAXsIiA7hD_jM-25" value="Scheduling, Provisioning, Pricing, andere Services" style="rounded=0;whiteSpace=wrap;html=1;" vertex="1" parent="1">
          <mxGeometry x="270" y="585" width="320" height="60" as="geometry" />
        </mxCell>
        <mxCell id="XGBpJpwAAXsIiA7hD_jM-26" value="" style="rounded=0;whiteSpace=wrap;html=1;dashed=1;" vertex="1" parent="1">
          <mxGeometry x="270" y="660" width="320" height="210" as="geometry" />
        </mxCell>
        <mxCell id="XGBpJpwAAXsIiA7hD_jM-27" value="Software as a Service" style="rounded=0;whiteSpace=wrap;html=1;" vertex="1" parent="1">
          <mxGeometry x="280" y="670" width="300" height="50" as="geometry" />
        </mxCell>
        <mxCell id="XGBpJpwAAXsIiA7hD_jM-28" value="Platform as a Service" style="rounded=0;whiteSpace=wrap;html=1;" vertex="1" parent="1">
          <mxGeometry x="280" y="742.5" width="300" height="50" as="geometry" />
        </mxCell>
        <mxCell id="XGBpJpwAAXsIiA7hD_jM-29" value="Infrastructure as a Service" style="rounded=0;whiteSpace=wrap;html=1;" vertex="1" parent="1">
          <mxGeometry x="280" y="810" width="300" height="50" as="geometry" />
        </mxCell>
        <mxCell id="XGBpJpwAAXsIiA7hD_jM-30" value="Management" style="text;html=1;strokeColor=none;fillColor=none;align=center;verticalAlign=middle;whiteSpace=wrap;rounded=0;rotation=-90;" vertex="1" parent="1">
          <mxGeometry x="190" y="750" width="60" height="30" as="geometry" />
        </mxCell>
        <mxCell id="XGBpJpwAAXsIiA7hD_jM-31" value="Security" style="text;html=1;strokeColor=none;fillColor=none;align=center;verticalAlign=middle;whiteSpace=wrap;rounded=0;rotation=-90;" vertex="1" parent="1">
          <mxGeometry x="610" y="750" width="60" height="30" as="geometry" />
        </mxCell>
        <mxCell id="XGBpJpwAAXsIiA7hD_jM-32" value="Virtualization Layer" style="rounded=0;whiteSpace=wrap;html=1;" vertex="1" parent="1">
          <mxGeometry x="270" y="880" width="320" height="50" as="geometry" />
        </mxCell>
        <mxCell id="XGBpJpwAAXsIiA7hD_jM-33" value="Physischer Layer" style="rounded=0;whiteSpace=wrap;html=1;" vertex="1" parent="1">
          <mxGeometry x="270" y="930" width="320" height="50" as="geometry" />
        </mxCell>
        <mxCell id="XGBpJpwAAXsIiA7hD_jM-34" value="&lt;b&gt;&lt;font style=&quot;font-size: 16px;&quot;&gt;Frontend&lt;/font&gt;&lt;/b&gt;" style="text;html=1;strokeColor=#6c8ebf;fillColor=#dae8fc;align=center;verticalAlign=middle;whiteSpace=wrap;rounded=0;" vertex="1" parent="1">
          <mxGeometry x="140" y="150" width="90" height="30" as="geometry" />
        </mxCell>
        <mxCell id="XGBpJpwAAXsIiA7hD_jM-35" value="&lt;b&gt;&lt;font style=&quot;font-size: 16px;&quot;&gt;Netzwerk&lt;/font&gt;&lt;/b&gt;" style="text;html=1;strokeColor=#6c8ebf;fillColor=#dae8fc;align=center;verticalAlign=middle;whiteSpace=wrap;rounded=0;" vertex="1" parent="1">
          <mxGeometry x="140" y="300" width="90" height="30" as="geometry" />
        </mxCell>
        <mxCell id="XGBpJpwAAXsIiA7hD_jM-36" value="&lt;span style=&quot;font-size: 16px;&quot;&gt;&lt;b&gt;Backend (Cloud)&lt;/b&gt;&lt;/span&gt;" style="text;html=1;strokeColor=#6c8ebf;fillColor=#dae8fc;align=center;verticalAlign=middle;whiteSpace=wrap;rounded=0;" vertex="1" parent="1">
          <mxGeometry x="140" y="520" width="90" height="50" as="geometry" />
        </mxCell>
      </root>
    </mxGraphModel>
  </diagram>
</mxfile>
